<svg width="113" height="109" viewBox="0 0 113 109" fill="none" xmlns="http://www.w3.org/2000/svg">
<rect width="113" height="109" rx="54.5" fill="#F8F5DC"/>
<path fill-rule="evenodd" clip-rule="evenodd" d="M73.4507 43.6C73.4507 52.6299 65.8619 59.95 56.5007 59.95C47.1395 59.95 39.5507 52.6299 39.5507 43.6C39.5507 34.5701 47.1395 27.25 56.5007 27.25C65.8619 27.25 73.4507 34.5701 73.4507 43.6ZM67.8007 43.6C67.8007 49.6199 62.7415 54.5 56.5007 54.5C50.2599 54.5 45.2007 49.6199 45.2007 43.6C45.2007 37.5801 50.2599 32.7 56.5007 32.7C62.7415 32.7 67.8007 37.5801 67.8007 43.6Z" fill="black"/>
<path d="M56.5007 68.125C38.2106 68.125 22.6269 78.5574 16.6907 93.1733C18.1368 94.5585 19.6601 95.8687 21.254 97.0974C25.6744 83.6785 39.5414 73.575 56.5007 73.575C73.46 73.575 87.327 83.6785 91.7474 97.0974C93.3413 95.8687 94.8646 94.5585 96.3107 93.1734C90.3745 78.5574 74.7908 68.125 56.5007 68.125Z" fill="black"/>
</svg>
