<svg width="80" height="81" viewBox="0 0 80 81" fill="none" xmlns="http://www.w3.org/2000/svg">
<path d="M40.0001 74.25C39.2223 74.25 38.5556 74.025 38.0001 73.575C37.4445 73.125 37.0279 72.5344 36.7501 71.8031C35.6945 68.6531 34.3612 65.7 32.7501 62.9437C31.1945 60.1875 29.0001 56.9531 26.1667 53.2406C23.3334 49.5281 21.0279 45.9844 19.2501 42.6094C17.5279 39.2344 16.6667 35.1562 16.6667 30.375C16.6667 23.7937 18.9167 18.225 23.4167 13.6687C27.9723 9.05625 33.5001 6.75 40.0001 6.75C46.5001 6.75 52.0001 9.05625 56.5001 13.6687C61.0556 18.225 63.3334 23.7937 63.3334 30.375C63.3334 35.4937 62.3612 39.7687 60.4168 43.2C58.5279 46.575 56.3334 49.9219 53.8334 53.2406C50.8334 57.2906 48.5556 60.6656 47.0001 63.3656C45.5001 66.0094 44.2501 68.8219 43.2501 71.8031C42.9723 72.5906 42.5279 73.2094 41.9167 73.6594C41.3612 74.0531 40.7223 74.25 40.0001 74.25ZM40.0001 38.8125C42.3334 38.8125 44.3056 37.9969 45.9167 36.3656C47.5279 34.7344 48.3334 32.7375 48.3334 30.375C48.3334 28.0125 47.5279 26.0156 45.9167 24.3844C44.3056 22.7531 42.3334 21.9375 40.0001 21.9375C37.6667 21.9375 35.6945 22.7531 34.0834 24.3844C32.4723 26.0156 31.6667 28.0125 31.6667 30.375C31.6667 32.7375 32.4723 34.7344 34.0834 36.3656C35.6945 37.9969 37.6667 38.8125 40.0001 38.8125Z" fill="#F87B1B"/>
</svg>
